<svg width="199" height="223" viewBox="0 0 199 223" fill="none" xmlns="http://www.w3.org/2000/svg">
<path d="M145.999 144.5H167.999L173 198C166.166 198.5 150.999 199.5 144.999 199.5C138.999 199.5 137.833 192.833 137.999 189.5C138.666 178.5 140.099 155.3 140.499 150.5C140.899 145.7 144.333 144.5 145.999 144.5Z" fill="#5AB0FF"/>
<path d="M57.9968 109C45.5968 109.4 42.0014 129.5 40.5 141C38.3513 157.458 39.4968 172 42.4968 183C45.4968 194 49.4968 201 62.9968 202C76.4968 203 87.9968 197 92.4968 192C96.9968 187 98.4968 172 87.9968 159.5C77.4968 147 75.4968 128.5 75.4968 120.5C75.4968 112.5 73.4968 108.5 57.9968 109Z" fill="#5AB0FF"/>
<path d="M89.5 121.5C90.4584 116.708 93.6068 109.258 95.9395 104.245C96.8475 102.294 96.4735 99.9736 94.9517 98.4518L89.2074 92.7074C88.4361 91.9362 87.3834 91.5133 86.2929 91.5368L84.5 91.5753M88.5 130.5C87.8333 134.667 89.3 145.8 100.5 157C114.5 171 113.5 209.5 105.5 220.5H26.9994C21.0604 201.363 15.6114 149.569 40.7153 94.2088C41.1879 93.1666 42.2244 92.4845 43.3686 92.4599L46.5 92.3925M155.5 128C157.32 128 158.893 128 160 128C164.4 128 166.5 133.667 167 136.5L174 220.5H120C119 203.5 123 146 126 136.5C128.07 129.946 133.511 128.127 137 127.964M155.5 128C150.087 128 142.492 128 138.5 128C138.064 127.954 137.557 127.938 137 127.964M155.5 128L154.704 109.287C154.59 106.611 152.387 104.5 149.708 104.5H139.5C138.667 104.667 137 105.5 137 107.5C137 109.5 137 121.976 137 127.964M46.5 92.3925L84.5 91.5753M46.5 92.3925C46.8039 87.8663 48.6319 79.0471 53.5 76.9197M84.5 91.5753C84 90.0502 82.4 85.8001 80 81.0001C79.2003 79.4007 77.5835 78.2632 75.5 77.4739M53.5 76.9197C53.9711 76.7138 54.4706 76.5706 55 76.5001C60.5008 75.7666 69.7672 75.3021 75.5 77.4739M53.5 76.9197C53.3333 75.2798 52.2 71.8 49 71C45 70 27 61.5 28.5 55.5C30 49.5 40 43 48.5 42.5C55.0555 42.1144 85.9979 41.134 100.5 41.6231M75.5 77.4739C75.9713 72.2654 78.2193 67.1264 83.5 62.3664M83.5 62.3664C83.822 62.0761 84.1552 61.7873 84.5 61.5C86.9135 59.4888 90.945 58.691 95 58.4235M83.5 62.3664C82.8333 67.7442 84.5 82 98 86C93.6 78.4 94.1667 64.449 95 58.4235M95 58.4235C96.8814 58.2993 98.7678 58.2893 100.5 58.3251M100.5 41.6231C104.802 41.7681 107.657 42.0425 108 42.5C109.5 44.5 109.5 58 108 58.5C107.383 58.7056 104.316 58.4041 100.5 58.3251M100.5 41.6231V58.3251" stroke="#333F48" stroke-width="4" stroke-linecap="round" stroke-linejoin="round"/>
<path d="M120.5 35L152.5 24.5M160.5 22L164 19.5M117.5 48H147.5M159 48H172.5M125 60L134.5 64.5M146 67.5L165.5 74.5M7.5 43C6.66667 44.8333 4.4 49 2 51C4 52.1667 8 54.9 8 56.5C8.66667 54.6667 10.6 50.8 13 50C11.3333 49 7.9 46.2 7.5 43ZM42.5 10C44.1667 11 48.1 14.4 48.5 16C49.8333 14 51 10 54.5 9C52.6667 8 48.5 3.6 48.5 2C48.5 3.5 47 7 42.5 10ZM70 18C71.6667 16.3333 75 12.4 75 10C75.6667 11.6667 77.7 15.5 80.5 17.5C79.3333 18.8333 76.9 22.1 76.5 24.5C75.6667 22.5 73.2 18.4 70 18ZM93 10C94.5 8.16667 97.5 4 97.5 4C97.5 4 100.5 8.5 102 10C100.833 10.8333 98.4 13 98 15C97.6667 13.6667 96.2 10.8 93 10ZM185.5 69C187.167 67.1667 191 60 191 60C192 61.5 194.6 65.1 197 67.5C195.333 68.8333 192 72.1 192 74.5C191.333 73.1667 189.1 70.2 185.5 69ZM178 102C179.833 100.167 183.6 95.9 184 93.5C185 95.1667 187.5 99 189.5 101C187.667 102.833 184 106.9 184 108.5C182.833 106.333 180 102 178 102Z" stroke="#5AB0FF" stroke-width="4" stroke-linecap="round" stroke-linejoin="round"/>
</svg>
