<svg width="149" height="228" viewBox="0 0 149 228" fill="none" xmlns="http://www.w3.org/2000/svg">
<path d="M37.9999 100.75C37.8332 93.5833 34.9999 80.35 24.9999 84.75C12.4999 90.25 15.9999 105.75 26.9999 113.25C37.9999 120.75 37.9999 129.75 37.9999 135.75C37.9999 141.75 30 149.25 22.5 141.75C16.5 135.75 17.3333 127.583 18.5 124.25M42.5 82.75C45.1253 83.0216 49.7075 83.3522 54.5 83.4052M66 82.75C62.7107 83.2982 58.531 83.4499 54.5 83.4052M54.5 83.4052C53.8333 97.8535 53.2 129.75 56 141.75M71 141.75C72.149 135.884 73.7149 127.666 75.2439 119.25M99.5 141.75C98.365 139.102 96.067 129.938 93.5896 119.25M93.5896 119.25C90.8286 107.339 87.8448 93.5347 86 84.75H80.5C80.5 89.0827 77.9288 104.471 75.2439 119.25M93.5896 119.25H75.2439M101 82.75C100.5 90.9167 102 108.45 112 113.25C124.5 119.25 128.5 90.75 128 84.75C130.5 100.25 133.4 132.85 125 139.25C116.6 145.65 111.5 133.25 110 126.25M18.5 155.75C18.8171 162.648 19.1946 173.37 19.331 183.75M18.5 211.25C19.3389 206.217 19.4814 195.191 19.331 183.75M19.331 183.75H36.5M36.5 183.75V155.75M36.5 183.75V211.25M76 212.75C76.1667 195.75 76.9 160.15 78.5 153.75C81.3333 166.083 87.3 191.55 88.5 194.75C91.1667 182.917 96.8 158.15 98 153.75C99.3333 168.083 102.5 199.95 104.5 212.75M131.5 150.75L113.5 152.25C114.018 160.466 114.747 172.528 115.361 183.75M133 212.75C129.8 211.55 120.667 212.25 116.5 212.75C116.722 210.526 116.131 197.796 115.361 183.75M115.361 183.75H127M48 161.25C48.1667 158.083 50 151.85 56 152.25C63.5 152.75 64.4382 158.379 66 167.75C67.5 176.75 67.4229 201.189 63.5 208.25C58.5 217.25 48.5 211.25 48 203.75C47.5 196.25 47.8333 164.417 48 161.25Z" stroke="#21BA72" stroke-width="6" stroke-linecap="round" stroke-linejoin="round"/>
<path d="M2 95.25V225.25H146.5V92.75M2 84.25L73 45.75L101 58.25V35.25C93.5 31.9167 79.8 22.25 85 10.25C91.5 -4.75 116 11.25 114.5 19.25C113 27.25 94.5 21.25 105.5 10.25C116.5 -0.749965 130 -0.750035 133 10.25C136 21.25 127.5 32.75 116.5 37.75V64.75L146.5 84.25" stroke="#333F48" stroke-width="4" stroke-linecap="round" stroke-linejoin="round"/>
</svg>
