<svg width="261" height="152" viewBox="0 0 261 152" fill="none" xmlns="http://www.w3.org/2000/svg">
<path d="M60.4993 29.6332C56.0993 29.2332 53.9993 32.7999 53.4993 34.6332C51.8326 39.2999 48.3993 53.2332 47.9993 71.6332C47.5993 90.0332 51.4993 113.3 53.4993 122.633C56.3326 122.8 65.4993 125.433 79.4993 134.633C96.9993 146.133 113.999 150.133 128.499 149.633C142.999 149.133 158.499 143.133 169.999 134.633C179.199 127.833 195.499 124.133 202.499 123.133C204.499 116.467 208.399 96.8332 207.999 71.6332C207.599 46.4332 202.833 31.7998 200.499 27.6332C188.999 28.6332 165.999 16.1332 142.999 5.6332C119.999 -4.8668 94.4993 10.1332 87.9993 16.1332C81.4993 22.1332 65.9993 30.1332 60.4993 29.6332Z" fill="#21BA72"/>
<path d="M202.499 32.4241C201.755 30.2268 201.058 28.6303 200.499 27.6332C188.999 28.6332 165.999 16.1332 142.999 5.6332C119.999 -4.8668 94.4993 10.1332 87.9993 16.1332C81.4993 22.1332 65.9993 30.1332 60.4993 29.6332C56.0993 29.2332 53.9993 32.7999 53.4993 34.6332C53.2653 35.2883 52.9965 36.1261 52.7062 37.1332M202.499 32.4241C204.864 39.4086 207.695 52.4637 207.999 71.6332C208.337 92.9328 205.604 110.256 203.541 119.133M202.499 32.4241C210.833 32.1604 231.4 34.8332 247 47.6332C266.5 63.6332 257.5 89.1332 252 95.6332C241.423 108.133 231.583 115.633 203.541 119.133M203.541 119.133C203.164 120.759 202.809 122.101 202.499 123.133C195.499 124.133 179.199 127.833 169.999 134.633C158.499 143.133 142.999 149.133 128.499 149.633C113.999 150.133 96.9993 146.133 79.4993 134.633C65.4993 125.433 56.3326 122.8 53.4993 122.633C53.2032 121.252 52.8655 119.565 52.5063 117.633M52.7062 37.1332C50.9284 43.2999 48.3431 55.8162 47.9993 71.6332C47.6585 87.3093 50.4388 106.518 52.5063 117.633M52.7062 37.1332C45.4708 37.2998 28.2 40.1332 17 50.1332C3 62.6332 2 71.6332 2 77.1332C2 82.6332 3.5 95.6332 22.5 106.633C37.7 115.433 48.8375 117.633 52.5063 117.633" stroke="#333F48" stroke-width="4" stroke-linecap="round" stroke-linejoin="round"/>
<path d="M162.567 48.2925C152.651 49.1524 129.716 50.3563 117.3 48.2925M95.3133 45.7129C92.2956 45.7129 85.7427 45.1969 83.6733 43.1332M175.5 77.9589C155.669 79.6787 108.505 82.0864 78.5 77.9589M157.393 106.335C156.1 107.195 150.668 108.915 139.287 108.915M121.18 108.915C112.989 109.345 93.5027 109.431 81.0867 106.335" stroke="#333F48" stroke-width="4" stroke-linecap="round" stroke-linejoin="round"/>
</svg>
