<svg width="217" height="192" viewBox="0 0 217 192" fill="none" xmlns="http://www.w3.org/2000/svg">
<path d="M29.9991 68.5411C20.8324 57.5411 10.7991 35.0411 43.9991 33.0411C44.3327 25.2078 48.4 8.54109 62 4.54109C79 -0.458908 95 1.04109 101 17.0411C105.833 11.0411 118.6 0.141055 131 4.54109C146.5 10.0411 155 18.0411 151 35.0411C155.833 33.2078 166.8 31.0411 172 37.0411C178.5 44.5411 181.5 50.0411 180.5 56.5411M193.5 61.5411L198 66.0411M204 56.5411V61.5411M209 68.0411C210.667 67.7078 214.2 66.8411 215 66.0411M204 72.0411C204.333 73.7078 205.2 77.4411 206 79.0411M198 71.0411C197.167 72.2078 195.1 74.7411 193.5 75.5411M12.5 75.5411L14 82.0411M19 86.0411L25.5 83.5411M2 82.0411L8 85.0411M10.5 90.5411L6.5 95.0411M16.5 90.5411L20.5 96.0411M30 155.041V160.541M20.5 161.541L25.5 165.041M35 166.041L41 161.541M32.5 170.041L36.5 175.041M27.5 170.041L24 175.041" stroke="#333F48" stroke-width="4" stroke-linecap="round" stroke-linejoin="round"/>
<path d="M205.498 125.541C207.832 119.708 212.298 104.941 211.498 92.5412C202.998 91.0412 184.598 86.9412 178.998 82.5412C178.665 77.7079 174.998 66.3412 162.998 59.5412C147.998 51.0412 108.998 35.5412 98.9983 35.0412C88.9983 34.5412 88.9983 38.5412 93.9983 41.5412C98.9983 44.5412 121.999 58.0411 123.499 60.5411C115.833 57.8745 98.9864 55.1263 83 53.0411C71.5 51.5411 65.9992 53.5411 65.4992 54.5411C64.9992 55.5411 73.4992 62.5411 87.4992 67.5411C98.6992 71.5411 109.833 75.2078 114 76.5411C103.666 73.8745 79.2998 68.5411 64.4998 68.5411C45.9998 68.5411 46.4998 71.0411 46.4998 72.0411C46.4998 72.954 48.9985 75.5338 61.6079 80.5411M118.5 118.041C103.667 113.541 72.1003 103.841 64.4998 101.041C54.9991 97.5411 50.5004 93.5411 53.5004 92.0411C53.9254 91.8286 55.3499 91.7071 57.5 91.6565M118.5 118.041L122 115.541M118.5 118.041C113.834 120.374 102.9 125.241 96.5004 126.041C88.5004 127.041 92.0004 130.041 99.0004 131.541C106 133.041 146 139.541 156.5 128.041C164.43 132.342 180.053 140.045 190 142.657M201.5 134.041L196 143.541C194.451 143.619 192.389 143.285 190 142.657M190 142.657C190.5 148.452 190.1 162.241 184.5 171.041C178.9 179.841 173.167 186.708 171 189.041L139.5 177.041C137.5 175.541 132.6 173.741 129 178.541C124.5 184.541 122 184.041 115 184.541C108 185.041 85.0004 181.041 73.0004 177.041C61.0004 173.041 54.0004 171.541 52.0004 169.041C50.0004 166.541 51.0004 162.541 58.5004 163.541C62.348 164.054 73.5289 164.183 84.0004 164.166M107 153.041C105.4 157.041 101.334 162.041 99.5004 164.041C95.4945 164.101 89.8585 164.156 84.0004 164.166M84.0004 164.166C67.8337 158.624 34.0004 146.341 28.0004 141.541C20.5004 135.541 29.0004 135.541 32.0004 136.041C34.4004 136.441 62.6665 138.541 76.4995 139.541C64.1668 134.874 38.0011 124.441 32.0004 120.041C24.4995 114.541 19.4995 109.041 28.9995 110.041C36.5995 110.841 68.1665 118.041 83 121.541C75.6669 118.041 59.2007 110.141 52.0004 106.541C43 102.041 37 95.0411 36 93.5411C35 92.0411 35.5 87.2571 45 89.5411C52.6 91.3684 56.5 91.7127 57.5 91.6565M57.5 91.6565C59.8934 91.6001 63.186 91.6317 67 91.7237M61.6079 80.5411C62.8108 81.0188 64.1057 81.5186 65.4992 82.0411C78.3002 86.8411 98.5004 91.7078 107 93.5411C96.4667 92.9154 79.1065 92.0155 67 91.7237M61.6079 80.5411C60.536 80.8745 58.7137 82.0411 60 84.0411C61.6079 86.5411 65.5 90.9062 67 91.7237" stroke="#333F48" stroke-width="4" stroke-linecap="round" stroke-linejoin="round"/>
<path fill-rule="evenodd" clip-rule="evenodd" d="M87.9999 145.041C90.3332 143.541 94.3999 138.841 91.9999 132.041C91.9031 131.767 91.8141 131.491 91.7329 131.214C92.2446 131.529 92.7976 131.798 93.3366 132.028C94.6724 132.6 96.3332 133.103 98.1726 133.497C101.765 134.267 113.637 136.286 125.968 136.665C126.909 136.694 127.855 136.714 128.803 136.722C129.249 137.678 129.649 138.621 130 139.541C134 150.041 132 162.541 121 163.041C113.496 163.382 111.344 159.302 109.622 156.04C108.821 154.52 108.112 153.177 107 152.541C104.873 151.326 103.485 151.957 101.49 152.863C100.201 153.448 98.6584 154.149 96.4999 154.541C90.9999 155.541 84.4747 149.041 87.9999 145.041ZM113.518 117.999C110.64 116.089 107.59 114.822 104.5 114.541C96.3476 113.8 91.7655 119.101 91.1605 125.355C92.2545 124.694 93.8788 124.302 95.8436 124.057C98.7797 123.69 102.916 122.354 107.014 120.753C109.335 119.846 111.588 118.877 113.518 117.999Z" fill="#5AB0FF"/>
</svg>
