<svg width="517" height="200" viewBox="0 0 517 200" fill="none" xmlns="http://www.w3.org/2000/svg">
<path d="M62.4166 164.619C62.5833 172.119 62.5166 189.019 60.9166 196.619H101.917M110.417 196.619H128.417C126.583 192.452 123.017 180.219 123.417 164.619M136.917 130.619C138.417 127.285 141 119.9 141 115.5M142.5 95C142.667 89.6667 143.017 77.4187 141.417 72.6187M47.9166 130.619C46.75 128.619 44.4166 123.119 44.4166 117.119M42.4166 97.1187C42.4168 91.2854 42.8171 78.5187 44.4166 74.1187M40.416 58.6187C41.931 60.9543 44.5217 63.6436 47.9166 65.2798M147.916 56.6187C144.759 58.915 141.739 60.3798 138.916 61.2293M138.916 61.2293C129.938 63.9311 122.959 60.4084 119.916 57.6187C114.316 78.4187 98.7493 66.9521 91.916 58.6187C83.116 79.8187 73.5827 67.4521 69.916 58.6187C61.2183 67.8135 53.4855 67.9636 47.9166 65.2798M138.916 61.2293C136.583 52.6924 124.316 36.2187 93.916 38.6187C63.516 41.0187 50.5831 57.3928 47.9166 65.2798M29.4169 131.619C23.2502 131.285 11.8169 126.319 15.4169 109.119C9.58323 105.619 -0.784058 95.9188 4.41594 85.1188C9.61594 74.3188 16.916 71.6188 19.916 71.6188C16.916 68.4521 11.516 59.8188 13.916 50.6188C16.916 39.1188 27.916 34.6188 35.916 36.6188C35.5827 32.9521 38.5085 20.6755 45.916 15.1188C53.3235 9.56207 66.916 5.61877 81.416 20.6188C82.916 14.9521 89.116 3.31877 101.916 2.11877C117.916 0.61877 126.916 13.6188 130.916 24.6188C134.749 21.7854 144.616 19.862 151.916 23.6188C162.019 28.8177 163.916 34.1188 161.416 51.1188C165.083 51.7854 172.916 55.7188 174.916 66.1188C176.916 76.5188 168.083 84.7854 163.416 87.6188C167.416 89.7854 175.016 96.9188 173.416 108.119C171.416 122.119 163.916 127.119 151.916 130.619M90.916 94.6188C90.0827 100.785 88.516 114.619 88.916 120.619M59.916 94.6188C60.2493 92.9521 61.816 89.4188 65.416 88.6188M115.416 85.1188C117.083 85.2855 121.017 86.4188 123.417 89.6188M68.916 103.619C67.916 102.619 68.516 100.219 70.916 100.619C73.916 101.119 71.916 105.619 68.916 103.619ZM115.916 101.619C114.916 100.619 115.516 98.2188 117.916 98.6188C120.916 99.1188 118.916 103.619 115.916 101.619Z" stroke="#333F48" stroke-width="4" stroke-linecap="round" stroke-linejoin="round"/>
<path d="M189.416 196.619H219.416M323.916 196.619H350.916" stroke="#333F48" stroke-width="4" stroke-linecap="round" stroke-linejoin="round"/>
<path d="M126.916 110.619C113.316 119.819 75.5827 116.452 58.416 113.619C52.416 130.419 48.2493 136.285 46.916 137.119C47.416 142.619 50.916 152.119 58.416 161.119C65.916 170.119 81.916 172.619 97.416 172.619C112.916 172.619 119.916 167.619 128.916 158.119C136.116 150.519 137.249 139.285 136.916 134.619C129.316 124.219 127.083 114.285 126.916 110.619Z" fill="#21BA72"/>
<path d="M78.416 130.119C82.2493 130.452 91.116 130.919 95.916 130.119M104.416 129.119C105.583 129.119 108.116 128.919 108.916 128.119M73.416 141.619C81.0827 142.285 99.316 143.219 110.916 141.619M80.416 152.619C80.916 152.952 83.016 153.619 87.416 153.619M94.416 153.619C97.5827 153.785 105.116 153.819 109.916 152.619" stroke="white" stroke-width="2" stroke-linecap="round" stroke-linejoin="round"/>
<path d="M396.916 47.6188L405.416 54.0671M504.916 44.1188C502.955 45.9702 499.415 49.0741 496.416 51.1147M496.416 51.1147C494.825 52.197 493.386 52.9801 492.416 53.1188C489.616 53.5188 482.916 48.2854 479.916 45.6188C476.749 49.1188 469.716 55.9188 466.916 55.1188C464.116 54.3188 456.749 48.4521 453.416 45.6188C450.216 50.0188 441.749 55.1188 437.916 57.1188L427.416 47.6188C426.216 50.0188 416.249 55.9521 411.416 58.6188L405.416 54.0671M496.416 51.1147C495.082 45.6161 487.616 33.4188 468.416 28.6188C468.749 26.7854 470.016 22.3188 472.416 19.1188M458.916 20.6188L461.916 28.6188C454.249 27.1188 435.916 26.1188 423.916 34.1188C408.916 44.1188 407.416 49.5153 405.416 54.0671M400.916 63.1188C400.582 68.4521 399.916 80.5188 399.916 86.1188M400.916 106.119C401.749 111.619 405.4 120.5 409 124.5M498.416 63.1188C498.749 67.6188 499.416 77.9188 499.416 83.1188M498.416 103.619C497.916 107.452 495.716 116.719 490.916 123.119M419.916 152.119C419.916 160.619 419.516 179.319 417.916 186.119H458.916M467.916 186.119H485.916C483.916 180.952 479.916 166.919 479.916 152.119M447.416 83.1188C446.416 89.9521 444.716 104.919 445.916 110.119M416.916 83.1188C417.749 81.4521 420.116 77.9188 422.916 77.1188M473.916 73.6188C475.416 73.9521 478.716 75.1188 479.916 77.1188M424.916 92.6188C423.916 91.6188 424.516 89.2188 426.916 89.6188C429.916 90.1188 427.916 94.6188 424.916 92.6188ZM472.916 90.6188C471.916 89.6188 472.516 87.2188 474.916 87.6188C477.916 88.1188 475.916 92.6188 472.916 90.6188Z" stroke="#333F48" stroke-width="4" stroke-linecap="round" stroke-linejoin="round"/>
<path d="M238.114 163.142C236.447 158.309 235.314 148.542 244.114 148.142C255.114 147.642 264.114 155.142 251.614 171.142C239.114 187.142 233.614 193.142 230.614 195.142C228.214 196.742 248.28 195.809 258.614 195.142M273.113 195.142C273.78 184.142 275.913 160.042 279.113 151.642C282.28 157.476 289.013 171.742 290.613 182.142L307.613 148.142C309.28 163.142 312.713 193.542 313.113 195.142" stroke="#21BA72" stroke-width="6" stroke-linecap="round" stroke-linejoin="round"/>
<path d="M145.917 87.1188C140.317 83.9188 130.917 101.452 126.917 110.619C126.917 118.619 133.584 129.952 136.917 134.619C139.917 130.452 146.617 120.419 149.417 113.619C152.917 105.119 152.917 91.1188 145.917 87.1188Z" stroke="#21BA72" stroke-width="2"/>
<path d="M39.501 91.1188C45.501 90.7188 55.2502 105.785 58.4169 113.619C57.2169 121.619 51.5836 131.952 48.9169 136.119C46.4169 135.119 40.5169 130.619 36.9169 120.619C32.4169 108.119 32.001 91.6188 39.501 91.1188Z" stroke="#21BA72" stroke-width="2"/>
<path d="M498.416 77.1187C490.416 83.5187 483.749 98.7854 481.416 105.619L490.416 127.619C498.416 120.119 506.916 101.619 507.916 94.6187C508.916 87.6187 508.416 69.1187 498.416 77.1187Z" stroke="#21BA72" stroke-width="2"/>
<path d="M482.916 103.119C468.916 107.919 431.749 105.119 414.916 103.119C413.249 105.952 409.416 112.619 407.416 116.619C404.916 121.619 402.916 140.119 416.416 151.119C429.916 162.119 451.416 164.619 472.916 158.119C490.116 152.919 493.416 134.952 492.916 126.619C489.716 121.419 484.916 108.785 482.916 103.119Z" fill="#21BA72"/>
<path d="M435.416 122.119C439.249 122.452 448.116 122.919 452.916 122.119M461.416 121.119C462.583 121.119 465.116 120.919 465.916 120.119M430.416 133.619C438.083 134.285 456.316 135.219 467.916 133.619M437.416 144.619C437.916 144.952 440.016 145.619 444.416 145.619M451.416 145.619C454.583 145.785 462.116 145.819 466.916 144.619" stroke="white" stroke-width="2" stroke-linecap="round" stroke-linejoin="round"/>
<path d="M141 115.232C146 114.899 156.1 112.432 156.5 105.232C157 96.2322 148.5 92.2322 142.5 94.7322M143.5 102.732C144.667 102.566 147.4 102.832 149 105.232" stroke="#333F48" stroke-width="4" stroke-linecap="round" stroke-linejoin="round"/>
<path d="M500 83.107C504.667 82.607 514.1 83.607 514.5 91.607C515 101.607 499 103.607 499 103.607M502 90.607C503.5 90.9403 506.7 92.007 507.5 93.607" stroke="#333F48" stroke-width="4" stroke-linecap="round" stroke-linejoin="round"/>
<path d="M399.916 86.1188C394.749 85.1188 384.516 85.6188 384.916 95.6188C385.316 105.619 395.749 106.785 400.916 106.119M391.916 96.6188C392.916 95.6188 395.516 93.6188 397.916 93.6188" stroke="#333F48" stroke-width="4" stroke-linecap="round" stroke-linejoin="round"/>
<path d="M44.4166 117.119C39.5833 117.452 29.7166 116.119 28.9166 108.119C27.9166 98.1188 36.9166 96.6188 42.4166 97.1188M35.916 108.119C36.0825 107.119 37.2155 105.119 40.416 105.119" stroke="#333F48" stroke-width="4" stroke-linecap="round" stroke-linejoin="round"/>
</svg>
