<svg width="117" height="174" viewBox="0 0 117 174" fill="none" xmlns="http://www.w3.org/2000/svg">
<path d="M34.9994 131C35.1661 138.5 25.9496 164.019 24.3496 171.619H65.3496M73.8496 171.619H91.8496C90.0163 167.452 80.949 146.1 81.349 130.5" stroke="#333F48" stroke-width="4" stroke-linecap="round" stroke-linejoin="round"/>
<path d="M29.5007 145C29.1469 140.4 31.6358 131.811 33.3687 126.774C33.6297 126.016 34.6428 125.876 35.1661 126.484C41.609 133.972 52.7319 136.39 61.5142 139.355L73.5 132.5L78.597 127.403C79.873 126.127 81.9557 126.283 82.7669 127.895C85.3912 133.109 87.3407 141.033 88 144C88.3718 145.673 82.6024 149.211 74.9979 153.088C77.0275 158.44 78.4552 164.515 79.3469 168.996C79.7103 170.823 78.2956 172.5 76.4332 172.5H62.959C61.1334 172.5 59.5067 170.856 59.0432 169.09C58.5775 167.315 57.7169 164.918 56.2232 161.909C54.0963 162.853 52.076 163.737 50.2465 164.53C48.9362 165.098 47.4154 164.656 46.6025 163.481L39.7435 153.574C39.3221 152.965 39.4332 152.136 40 151.66C34.5286 149.795 29.7365 148.064 29.5007 145Z" fill="#21BA72"/>
<path d="M7.58815 72.1662C3.3712 67.3133 -2.53253 55.3903 7.58815 46.5216C5.72387 39.131 6.01695 24.0559 22.1035 22.8805C23.4794 15.9796 29.8269 3.59365 44.209 9.25683C49.5358 3.78066 62.7461 -3.88599 72.9733 9.25683C79.8979 6.63005 94.2267 5.67729 96.1443 22.8805C102.27 23.5928 113.536 29.1313 109.594 45.5866C113.9 50.6621 119.715 63.4043 108.529 73.7689M14.2964 92.6425C14.9458 91.5 16.8967 89.6425 19.2964 89.6425M96.942 89.2049C98.442 89.7049 99.942 90.2049 100.942 92.2049M51 117L51.6284 117.503C55.6458 120.717 61.3543 120.717 65.3717 117.503L66 117M58.5 89.2049C57.8333 91.3033 56.6 96.8 57 102C57.8333 102.667 60 103.8 62 103M44.209 37.8398C36.6185 40.9118 21.1978 51.1697 20.239 67.6249L22.3078 82C17.1412 81 5.78616 81.6084 7.30783 91.5C9 102.5 23.5 100.134 23.5 100.134L23.6756 100.796C28.1002 117.461 37.5125 134.772 54.5832 137.199C55.8844 137.384 57.1941 137.49 58.5 137.5C59.5304 137.508 60.5486 137.456 61.5507 137.354C78.2848 135.643 86.6392 117.807 90.6586 101.473L90.9879 100.134C90.9879 100.134 107.03 101.514 108.44 91.601C109.567 83.6708 100.496 80.8961 95.8194 80.5L97.4758 73.7689C97.2982 71.2312 92.3355 66.1557 73.9053 66.1557C55.475 66.1557 46.4285 47.2785 44.209 37.8398ZM39.5 84.5C38.5 83.5 39.1 81.1 41.5 81.5C44.5 82 42.5 86.5 39.5 84.5ZM75.5 84.5C74.5 83.5 75.1 81.1 77.5 81.5C80.5 82 78.5 86.5 75.5 84.5Z" stroke="#333F48" stroke-width="4" stroke-linecap="round" stroke-linejoin="round"/>
<circle cx="41" cy="85" r="11" stroke="#333F48" stroke-width="4" stroke-linecap="round" stroke-linejoin="round"/>
<path d="M52 85.5C54.1667 83.1667 59.4 79.9 65 85.5" stroke="#333F48" stroke-width="4" stroke-linecap="round" stroke-linejoin="round"/>
<circle cx="76" cy="85" r="11" stroke="#333F48" stroke-width="4" stroke-linecap="round" stroke-linejoin="round"/>
</svg>
