<svg width="177" height="48" viewBox="0 0 177 48" fill="none" xmlns="http://www.w3.org/2000/svg">
<g clip-path="url(#clip0)">
<path d="M163.913 9.65381H151.888V38.8212H158.191V30.5593H163.913C171.586 30.5593 176.354 26.5303 176.354 20.0921C176.354 13.654 171.588 9.65381 163.913 9.65381ZM163.778 25.7027H158.191V14.5105H163.778C167.816 14.5105 170.041 16.4977 170.041 20.1066C170.041 23.7154 167.818 25.7027 163.778 25.7027Z" fill="#21A038"/>
<path d="M139.421 14.5105L146.019 9.65381H123.933V38.8212H146.019V33.9645H130.236V26.4982H143.698V21.6415H130.236V14.5105H139.421Z" fill="#21A038"/>
<path d="M107.262 21.024H99.5923V14.5105H111.837L118.436 9.65381H93.2891V38.8212H106.45C113.831 38.8212 118.065 35.4818 118.065 29.6579C118.065 24.0907 114.227 21.024 107.262 21.024ZM106.165 33.9645H99.5923V25.8791H106.165C110.167 25.8791 112.03 27.2312 112.03 29.921C112.028 32.6701 110.056 33.9645 106.165 33.9645Z" fill="#21A038"/>
<path d="M82.4683 32.5064C80.8523 33.3966 78.9697 33.8681 77.0277 33.8681C71.3445 33.8681 67.2211 29.8182 67.2211 24.2382C67.2211 18.6581 71.3461 14.6082 77.0277 14.6082C79.1769 14.6082 81.1045 15.2113 82.7606 16.3998L87.2808 13.0733L86.982 12.8118C84.3428 10.4958 80.8154 9.27197 76.7835 9.27197C72.4095 9.27197 68.4387 10.7444 65.6052 13.4197C62.7539 16.1095 61.1846 19.8947 61.1846 24.0778C61.1846 28.2801 62.7491 32.1215 65.5891 34.893C68.4387 37.6742 72.3999 39.206 76.7433 39.206C81.2876 39.206 85.2552 37.6245 87.9442 34.7455C85.8688 33.2185 83.8658 31.7445 83.8658 31.7445L82.4683 32.5064Z" fill="#21A038"/>
<path d="M24.037 42.4571C23.7268 42.4571 23.4197 42.4492 23.1127 42.4333L22.8359 47.9699C23.2336 47.989 23.6345 48.0001 24.037 48.0001C30.6751 48.0001 36.6849 45.3144 41.034 40.9706L37.1017 37.0444C33.7548 40.3861 29.1337 42.4571 24.037 42.4571Z" fill="url(#paint0_linear)"/>
<path d="M5.55169 23.9999C5.55169 23.6902 5.55965 23.3837 5.57555 23.0771L0.0302245 22.8008C0.0111356 23.1978 0 23.5981 0 23.9999C0 30.6276 2.68995 36.628 7.04063 40.9703L10.9729 37.0441C7.62443 33.7025 5.55169 29.0886 5.55169 23.9999Z" fill="url(#paint1_linear)"/>
<path d="M24.0352 42.4568C18.6076 42.4568 13.7192 40.1093 10.3341 36.377L6.21094 40.1014C10.6093 44.9519 16.9659 47.9997 24.0352 47.9997V42.4568Z" fill="url(#paint2_linear)"/>
<path d="M48.0743 24.0001C48.0743 22.5325 47.9422 21.0952 47.6893 19.7007L42.5146 23.5077C42.5194 23.6713 42.521 23.8349 42.521 24.0001C42.521 29.4191 40.1699 34.2998 36.4316 37.6796L40.1619 41.7963C45.0216 37.4064 48.0743 31.0598 48.0743 24.0001Z" fill="#21A038"/>
<path d="M24.0361 5.54456C24.3463 5.54456 24.6534 5.55567 24.9604 5.56997L25.2372 0.030177C24.8395 0.0111181 24.4386 0 24.0361 0C17.398 0 11.3882 2.68571 7.03906 7.02956L10.9714 10.9557C14.3183 7.61403 18.941 5.54456 24.0361 5.54456Z" fill="url(#paint3_linear)"/>
<path d="M43.0578 9.32764C44.1936 10.792 45.1639 12.3914 45.9386 14.0987L24.0357 30.2146L14.8857 24.4874V17.5976L24.0357 23.3248L43.0578 9.32764Z" fill="#21A038"/>
<path d="M11.6411 10.3203L7.91077 6.20361C3.05264 10.5951 0 16.9417 0 23.9998H5.55328C5.55169 18.5808 7.90281 13.7001 11.6411 10.3203Z" fill="url(#paint4_linear)"/>
<path d="M34.4571 8.76551L39.1323 5.32538C35.0059 1.99642 29.7549 0 24.0361 0V5.54456C27.9 5.54456 31.4888 6.73415 34.4571 8.76551Z" fill="url(#paint5_linear)"/>
</g>
<defs>
<linearGradient id="paint0_linear" x1="22.4701" y1="44.6559" x2="40.1391" y2="40.6562" gradientUnits="userSpaceOnUse">
<stop offset="0.1226" stop-color="#A3CD39"/>
<stop offset="0.2846" stop-color="#86C339"/>
<stop offset="0.8693" stop-color="#21A038"/>
</linearGradient>
<linearGradient id="paint1_linear" x1="8.16296" y1="40.2771" x2="2.11252" y2="22.7603" gradientUnits="userSpaceOnUse">
<stop offset="0.1444" stop-color="#F2E913"/>
<stop offset="0.3037" stop-color="#E7E518"/>
<stop offset="0.5823" stop-color="#CADB26"/>
<stop offset="0.891" stop-color="#A3CD39"/>
</linearGradient>
<linearGradient id="paint2_linear" x1="7.60342" y1="39.4275" x2="24.0433" y2="45.5797" gradientUnits="userSpaceOnUse">
<stop offset="0.1324" stop-color="#F2E913"/>
<stop offset="0.2977" stop-color="#EBE716"/>
<stop offset="0.5306" stop-color="#D9E01F"/>
<stop offset="0.8023" stop-color="#BBD62D"/>
<stop offset="0.9829" stop-color="#A3CD39"/>
</linearGradient>
<linearGradient id="paint3_linear" x1="8.62533" y1="8.01149" x2="24.2463" y2="2.04927" gradientUnits="userSpaceOnUse">
<stop offset="0.0592" stop-color="#0FA8E0"/>
<stop offset="0.5385" stop-color="#0099F9"/>
<stop offset="0.9234" stop-color="#0291EB"/>
</linearGradient>
<linearGradient id="paint4_linear" x1="2.06704" y1="24.6724" x2="8.65055" y2="7.51918" gradientUnits="userSpaceOnUse">
<stop offset="0.0698" stop-color="#A3CD39"/>
<stop offset="0.2599" stop-color="#81C55F"/>
<stop offset="0.9216" stop-color="#0FA8E0"/>
</linearGradient>
<linearGradient id="paint5_linear" x1="22.8745" y1="1.85869" x2="37.9793" y2="6.52653" gradientUnits="userSpaceOnUse">
<stop offset="0.0566" stop-color="#0291EB"/>
<stop offset="0.79" stop-color="#0C8ACB"/>
</linearGradient>
<clipPath id="clip0">
<rect width="177" height="48" fill="white"/>
</clipPath>
</defs>
</svg>
